<svg width="32" height="24" viewBox="0 0 32 24" fill="none" xmlns="http://www.w3.org/2000/svg">
<path d="M7.94748 24C5.77681 24 3.90956 23.2166 2.34573 21.6499C0.781911 20.0831 0 18.1958 0 15.9881C0 13.9466 0.601021 12.1958 1.80306 10.7359C3.00511 9.27597 4.51641 8.36795 6.33698 8.01187C6.85047 5.73294 8.01167 3.82789 9.82057 2.29674C11.6295 0.765579 13.7009 0 16.035 0C18.6725 0 20.9482 0.967359 22.8621 2.90208C24.7761 4.8368 25.8031 7.20475 25.9431 10.0059V10.8605C27.717 10.9792 29.1699 11.6558 30.302 12.8902C31.434 14.1246 32 15.632 32 17.4125C32 19.2166 31.3698 20.7656 30.1094 22.0593C28.849 23.3531 27.3319 24 25.558 24H7.94748ZM7.94748 21.2226H25.558C26.585 21.2226 27.4661 20.8427 28.2013 20.0831C28.9365 19.3234 29.3042 18.4332 29.3042 17.4125C29.3042 16.368 28.9307 15.4659 28.1838 14.7062C27.4369 13.9466 26.5616 13.5668 25.558 13.5668H23.2473V10.5045C23.2473 8.41543 22.5587 6.60534 21.1816 5.07418C19.8045 3.54303 18.089 2.77745 16.035 2.77745C14.4712 2.77745 13.0416 3.24629 11.7462 4.18398C10.4508 5.12166 9.58133 6.38576 9.13786 7.97626C11.0751 8.28487 12.674 9.12166 13.9344 10.4866C15.1947 11.8516 15.8249 13.5549 15.8249 15.5964H13.0941C13.0941 14.1246 12.5806 12.9199 11.5536 11.9822C10.5266 11.0445 9.28957 10.5757 7.84245 10.5757C6.34865 10.5757 5.11743 11.0861 4.1488 12.1068C3.18016 13.1276 2.69584 14.3976 2.69584 15.9169C2.69584 17.4125 3.2035 18.6706 4.21882 19.6914C5.23414 20.7122 6.47702 21.2226 7.94748 21.2226Z" fill="#1F5ECA"/>
</svg>
