<svg width="48" height="48" viewBox="0 0 48 48" fill="none" xmlns="http://www.w3.org/2000/svg">
<rect width="48" height="48" rx="4" fill="white"/>
<rect width="48" height="48" rx="4" fill="#1F5ECA" fill-opacity="0.08"/>
<path d="M19.3333 28.6667V19.375H28.625V28.6667H19.3333ZM22.2083 25.7917H25.75V22.25H22.2083V25.7917ZM18.625 40V36.375H14.875C14.0139 36.375 13.2569 36.0486 12.6042 35.3958C11.9514 34.7431 11.625 33.9861 11.625 33.125V29.375H8V26.375H11.625V21.4583H8V18.4583H11.625V14.7083C11.625 13.8472 11.9514 13.0903 12.6042 12.4375C13.2569 11.7847 14.0139 11.4583 14.875 11.4583H18.625V8H21.625V11.4583H26.5417V8H29.5417V11.4583H33.2917C34.1528 11.4583 34.9097 11.7847 35.5625 12.4375C36.2153 13.0903 36.5417 13.8472 36.5417 14.7083V18.4583H40V21.4583H36.5417V26.375H40V29.375H36.5417V33.125C36.5417 33.9861 36.2153 34.7431 35.5625 35.3958C34.9097 36.0486 34.1528 36.375 33.2917 36.375H29.5417V40H26.5417V36.375H21.625V40H18.625ZM33.2917 33.125V14.7083H14.875V33.125H33.2917Z" fill="#1F5ECA"/>
</svg>
